<?xml version="1.0" encoding="UTF-8"?>
<!DOCTYPE svg PUBLIC "-//W3C//DTD SVG 1.1//EN" "http://www.w3.org/Graphics/SVG/1.1/DTD/svg11.dtd">
<svg xmlns="http://www.w3.org/2000/svg" version="1.1" width="56px" height="56px" style="shape-rendering:geometricPrecision; text-rendering:geometricPrecision; image-rendering:optimizeQuality; fill-rule:evenodd; clip-rule:evenodd" xmlns:xlink="http://www.w3.org/1999/xlink">
<g><path style="opacity:0.798" fill="#eee9e4" d="M 50.5,41.5 C 40.5452,54.0842 28.2119,56.9175 13.5,50C 9.97345,47.6378 6.97345,44.8045 4.5,41.5C 3.20695,40.158 2.37362,38.4913 2,36.5C -1.6276,15.6963 6.8724,4.02963 27.5,1.5C 48.1276,4.02963 56.6276,15.6963 53,36.5C 52.6264,38.4913 51.793,40.158 50.5,41.5 Z"/></g>
<g><path style="opacity:1" fill="#f57e07" d="M 21.5,3.5 C 35.8165,2.23827 45.6498,8.23827 51,21.5C 52.8173,36.3694 46.6506,46.2028 32.5,51C 18.0446,52.5196 8.54456,46.3529 4,32.5C 2.6691,18.4931 8.50243,8.82645 21.5,3.5 Z"/></g>
<g><path style="opacity:1" fill="#fff7f0" d="M 26.5,13.5 C 28.371,13.8588 29.871,14.8588 31,16.5C 31.4983,19.8168 31.665,23.1501 31.5,26.5C 34.5,26.5 37.5,26.5 40.5,26.5C 40.5,31.5 40.5,36.5 40.5,41.5C 31.8333,41.5 23.1667,41.5 14.5,41.5C 14.5,34.5 14.5,27.5 14.5,20.5C 17.5,20.5 20.5,20.5 23.5,20.5C 23.1496,17.5466 24.1496,15.2133 26.5,13.5 Z"/></g>
<g><path style="opacity:1" fill="#f78e2b" d="M 25.5,17.5 C 26.8333,17.5 28.1667,17.5 29.5,17.5C 29.5,18.5 29.5,19.5 29.5,20.5C 28.1667,20.5 26.8333,20.5 25.5,20.5C 25.5,19.5 25.5,18.5 25.5,17.5 Z"/></g>
<g><path style="opacity:1" fill="#f47c00" d="M 17.5,23.5 C 18.5,23.5 19.5,23.5 20.5,23.5C 20.5,24.5 20.5,25.5 20.5,26.5C 19.5,26.5 18.5,26.5 17.5,26.5C 17.5,25.5 17.5,24.5 17.5,23.5 Z"/></g>
<g><path style="opacity:1" fill="#f78e2b" d="M 25.5,23.5 C 26.8333,23.5 28.1667,23.5 29.5,23.5C 29.5,24.5 29.5,25.5 29.5,26.5C 28.1667,26.5 26.8333,26.5 25.5,26.5C 25.5,25.5 25.5,24.5 25.5,23.5 Z"/></g>
<g><path style="opacity:1" fill="#f47c00" d="M 17.5,29.5 C 18.5,29.5 19.5,29.5 20.5,29.5C 20.5,30.5 20.5,31.5 20.5,32.5C 19.5,32.5 18.5,32.5 17.5,32.5C 17.5,31.5 17.5,30.5 17.5,29.5 Z"/></g>
<g><path style="opacity:1" fill="#f78e2b" d="M 25.5,29.5 C 26.8333,29.5 28.1667,29.5 29.5,29.5C 29.5,30.5 29.5,31.5 29.5,32.5C 28.1667,32.5 26.8333,32.5 25.5,32.5C 25.5,31.5 25.5,30.5 25.5,29.5 Z"/></g>
<g><path style="opacity:1" fill="#f47c00" d="M 34.5,29.5 C 35.5,29.5 36.5,29.5 37.5,29.5C 37.5,30.5 37.5,31.5 37.5,32.5C 36.5,32.5 35.5,32.5 34.5,32.5C 34.5,31.5 34.5,30.5 34.5,29.5 Z"/></g>
<g><path style="opacity:1" fill="#f47c00" d="M 17.5,35.5 C 18.5,35.5 19.5,35.5 20.5,35.5C 20.5,36.5 20.5,37.5 20.5,38.5C 19.5,38.5 18.5,38.5 17.5,38.5C 17.5,37.5 17.5,36.5 17.5,35.5 Z"/></g>
<g><path style="opacity:1" fill="#f78e2b" d="M 25.5,35.5 C 26.8333,35.5 28.1667,35.5 29.5,35.5C 29.5,36.5 29.5,37.5 29.5,38.5C 28.1667,38.5 26.8333,38.5 25.5,38.5C 25.5,37.5 25.5,36.5 25.5,35.5 Z"/></g>
<g><path style="opacity:1" fill="#f47c00" d="M 34.5,35.5 C 35.5,35.5 36.5,35.5 37.5,35.5C 37.5,36.5 37.5,37.5 37.5,38.5C 36.5,38.5 35.5,38.5 34.5,38.5C 34.5,37.5 34.5,36.5 34.5,35.5 Z"/></g>
<g><path style="opacity:0.235" fill="#050505" d="M 4.5,41.5 C 6.97345,44.8045 9.97345,47.6378 13.5,50C 28.2119,56.9175 40.5452,54.0842 50.5,41.5C 47.1967,48.4852 41.8633,53.1519 34.5,55.5C 29.8333,55.5 25.1667,55.5 20.5,55.5C 13.1367,53.1519 7.80333,48.4852 4.5,41.5 Z"/></g>
</svg>
